<mxfile host="app.diagrams.net" modified="2023-08-22T05:04:40.439Z" agent="Mozilla/5.0 (Windows NT 10.0; Win64; x64) AppleWebKit/537.36 (KHTML, like Gecko) Chrome/116.0.0.0 Safari/537.36" etag="eN_QQgmTsPjmf9TwiK4a" version="21.6.8" type="github">
  <diagram name="Page-1" id="U7tFVwTUIb-bD6Mo-x_q">
    <mxGraphModel dx="1101" dy="2108" grid="1" gridSize="10" guides="1" tooltips="1" connect="1" arrows="1" fold="1" page="1" pageScale="1" pageWidth="850" pageHeight="1100" math="0" shadow="0">
      <root>
        <mxCell id="0" />
        <mxCell id="1" parent="0" />
        <mxCell id="5qT3sLlRHdyFEPzXBc_V-33" style="edgeStyle=orthogonalEdgeStyle;rounded=0;orthogonalLoop=1;jettySize=auto;html=1;entryX=1;entryY=0.5;entryDx=0;entryDy=0;entryPerimeter=0;" edge="1" parent="1" source="5qT3sLlRHdyFEPzXBc_V-1" target="5qT3sLlRHdyFEPzXBc_V-31">
          <mxGeometry relative="1" as="geometry" />
        </mxCell>
        <mxCell id="5qT3sLlRHdyFEPzXBc_V-1" value="" style="fontColor=#0066CC;verticalAlign=top;verticalLabelPosition=bottom;labelPosition=center;align=center;html=1;outlineConnect=0;fillColor=#CCCCCC;strokeColor=#6881B3;gradientColor=none;gradientDirection=north;strokeWidth=2;shape=mxgraph.networks.router;" vertex="1" parent="1">
          <mxGeometry x="360" y="80" width="100" height="30" as="geometry" />
        </mxCell>
        <mxCell id="5qT3sLlRHdyFEPzXBc_V-3" style="edgeStyle=orthogonalEdgeStyle;rounded=0;orthogonalLoop=1;jettySize=auto;html=1;exitX=0.5;exitY=1;exitDx=0;exitDy=0;exitPerimeter=0;" edge="1" parent="1" source="5qT3sLlRHdyFEPzXBc_V-2" target="5qT3sLlRHdyFEPzXBc_V-1">
          <mxGeometry relative="1" as="geometry" />
        </mxCell>
        <mxCell id="5qT3sLlRHdyFEPzXBc_V-2" value="&lt;font style=&quot;font-size: 10px;&quot;&gt;INTERNET&lt;br&gt;ISP&lt;/font&gt;" style="html=1;outlineConnect=0;fillColor=#CCCCCC;strokeColor=#6881B3;gradientColor=none;gradientDirection=north;strokeWidth=2;shape=mxgraph.networks.cloud;fontColor=#ffffff;" vertex="1" parent="1">
          <mxGeometry x="342.5" y="-80" width="135" height="80" as="geometry" />
        </mxCell>
        <mxCell id="5qT3sLlRHdyFEPzXBc_V-9" style="edgeStyle=orthogonalEdgeStyle;rounded=0;orthogonalLoop=1;jettySize=auto;html=1;" edge="1" parent="1" source="5qT3sLlRHdyFEPzXBc_V-6" target="5qT3sLlRHdyFEPzXBc_V-7">
          <mxGeometry relative="1" as="geometry" />
        </mxCell>
        <mxCell id="5qT3sLlRHdyFEPzXBc_V-36" style="edgeStyle=orthogonalEdgeStyle;rounded=0;orthogonalLoop=1;jettySize=auto;html=1;entryX=0;entryY=0.5;entryDx=0;entryDy=0;entryPerimeter=0;" edge="1" parent="1" source="5qT3sLlRHdyFEPzXBc_V-6" target="5qT3sLlRHdyFEPzXBc_V-34">
          <mxGeometry relative="1" as="geometry" />
        </mxCell>
        <mxCell id="5qT3sLlRHdyFEPzXBc_V-49" style="edgeStyle=orthogonalEdgeStyle;rounded=0;orthogonalLoop=1;jettySize=auto;html=1;" edge="1" parent="1" source="5qT3sLlRHdyFEPzXBc_V-6">
          <mxGeometry relative="1" as="geometry">
            <mxPoint x="90" y="-40" as="targetPoint" />
          </mxGeometry>
        </mxCell>
        <mxCell id="5qT3sLlRHdyFEPzXBc_V-6" value="" style="fontColor=#0066CC;verticalAlign=top;verticalLabelPosition=bottom;labelPosition=center;align=center;html=1;outlineConnect=0;fillColor=#CCCCCC;strokeColor=#6881B3;gradientColor=none;gradientDirection=north;strokeWidth=2;shape=mxgraph.networks.patch_panel;" vertex="1" parent="1">
          <mxGeometry x="130" y="210" width="100" height="35" as="geometry" />
        </mxCell>
        <mxCell id="5qT3sLlRHdyFEPzXBc_V-10" style="edgeStyle=orthogonalEdgeStyle;rounded=0;orthogonalLoop=1;jettySize=auto;html=1;" edge="1" parent="1" source="5qT3sLlRHdyFEPzXBc_V-7" target="5qT3sLlRHdyFEPzXBc_V-8">
          <mxGeometry relative="1" as="geometry" />
        </mxCell>
        <mxCell id="5qT3sLlRHdyFEPzXBc_V-7" value="" style="fontColor=#0066CC;verticalAlign=top;verticalLabelPosition=bottom;labelPosition=center;align=center;html=1;outlineConnect=0;fillColor=#CCCCCC;strokeColor=#6881B3;gradientColor=none;gradientDirection=north;strokeWidth=2;shape=mxgraph.networks.patch_panel;" vertex="1" parent="1">
          <mxGeometry x="130" y="270" width="100" height="35" as="geometry" />
        </mxCell>
        <mxCell id="5qT3sLlRHdyFEPzXBc_V-16" style="edgeStyle=orthogonalEdgeStyle;rounded=0;orthogonalLoop=1;jettySize=auto;html=1;entryX=0.5;entryY=0;entryDx=0;entryDy=0;entryPerimeter=0;" edge="1" parent="1" source="5qT3sLlRHdyFEPzXBc_V-8" target="5qT3sLlRHdyFEPzXBc_V-14">
          <mxGeometry relative="1" as="geometry" />
        </mxCell>
        <mxCell id="5qT3sLlRHdyFEPzXBc_V-17" style="edgeStyle=orthogonalEdgeStyle;rounded=0;orthogonalLoop=1;jettySize=auto;html=1;" edge="1" parent="1" source="5qT3sLlRHdyFEPzXBc_V-8">
          <mxGeometry relative="1" as="geometry">
            <mxPoint x="180" y="530" as="targetPoint" />
          </mxGeometry>
        </mxCell>
        <mxCell id="5qT3sLlRHdyFEPzXBc_V-18" style="edgeStyle=orthogonalEdgeStyle;rounded=0;orthogonalLoop=1;jettySize=auto;html=1;entryX=0.5;entryY=0;entryDx=0;entryDy=0;entryPerimeter=0;" edge="1" parent="1" source="5qT3sLlRHdyFEPzXBc_V-8" target="5qT3sLlRHdyFEPzXBc_V-12">
          <mxGeometry relative="1" as="geometry" />
        </mxCell>
        <mxCell id="5qT3sLlRHdyFEPzXBc_V-24" style="edgeStyle=orthogonalEdgeStyle;rounded=0;orthogonalLoop=1;jettySize=auto;html=1;entryX=0.5;entryY=0;entryDx=0;entryDy=0;entryPerimeter=0;" edge="1" parent="1" source="5qT3sLlRHdyFEPzXBc_V-8" target="5qT3sLlRHdyFEPzXBc_V-23">
          <mxGeometry relative="1" as="geometry" />
        </mxCell>
        <mxCell id="5qT3sLlRHdyFEPzXBc_V-8" value="" style="fontColor=#0066CC;verticalAlign=top;verticalLabelPosition=bottom;labelPosition=center;align=center;html=1;outlineConnect=0;fillColor=#CCCCCC;strokeColor=#6881B3;gradientColor=none;gradientDirection=north;strokeWidth=2;shape=mxgraph.networks.patch_panel;" vertex="1" parent="1">
          <mxGeometry x="130" y="340" width="100" height="35" as="geometry" />
        </mxCell>
        <mxCell id="5qT3sLlRHdyFEPzXBc_V-12" value="" style="fontColor=#0066CC;verticalAlign=top;verticalLabelPosition=bottom;labelPosition=center;align=center;html=1;outlineConnect=0;fillColor=#CCCCCC;strokeColor=#6881B3;gradientColor=none;gradientDirection=north;strokeWidth=2;shape=mxgraph.networks.terminal;" vertex="1" parent="1">
          <mxGeometry x="250" y="540" width="80" height="65" as="geometry" />
        </mxCell>
        <mxCell id="5qT3sLlRHdyFEPzXBc_V-14" value="" style="fontColor=#0066CC;verticalAlign=top;verticalLabelPosition=bottom;labelPosition=center;align=center;html=1;outlineConnect=0;fillColor=#CCCCCC;strokeColor=#6881B3;gradientColor=none;gradientDirection=north;strokeWidth=2;shape=mxgraph.networks.terminal;" vertex="1" parent="1">
          <mxGeometry x="30" y="540" width="80" height="65" as="geometry" />
        </mxCell>
        <mxCell id="5qT3sLlRHdyFEPzXBc_V-15" value="" style="fontColor=#0066CC;verticalAlign=top;verticalLabelPosition=bottom;labelPosition=center;align=center;html=1;outlineConnect=0;fillColor=#CCCCCC;strokeColor=#6881B3;gradientColor=none;gradientDirection=north;strokeWidth=2;shape=mxgraph.networks.terminal;" vertex="1" parent="1">
          <mxGeometry x="140" y="540" width="80" height="65" as="geometry" />
        </mxCell>
        <mxCell id="5qT3sLlRHdyFEPzXBc_V-22" value="" style="fontColor=#0066CC;verticalAlign=top;verticalLabelPosition=bottom;labelPosition=center;align=center;html=1;outlineConnect=0;fillColor=#CCCCCC;strokeColor=#6881B3;gradientColor=none;gradientDirection=north;strokeWidth=2;shape=mxgraph.networks.monitor;" vertex="1" parent="1">
          <mxGeometry x="720" y="535" width="80" height="65" as="geometry" />
        </mxCell>
        <mxCell id="5qT3sLlRHdyFEPzXBc_V-26" style="edgeStyle=orthogonalEdgeStyle;rounded=0;orthogonalLoop=1;jettySize=auto;html=1;entryX=0;entryY=0.5;entryDx=0;entryDy=0;entryPerimeter=0;" edge="1" parent="1" source="5qT3sLlRHdyFEPzXBc_V-23" target="5qT3sLlRHdyFEPzXBc_V-22">
          <mxGeometry relative="1" as="geometry" />
        </mxCell>
        <mxCell id="5qT3sLlRHdyFEPzXBc_V-28" style="edgeStyle=orthogonalEdgeStyle;rounded=0;orthogonalLoop=1;jettySize=auto;html=1;entryX=0.5;entryY=0;entryDx=0;entryDy=0;entryPerimeter=0;" edge="1" parent="1" source="5qT3sLlRHdyFEPzXBc_V-23" target="5qT3sLlRHdyFEPzXBc_V-27">
          <mxGeometry relative="1" as="geometry" />
        </mxCell>
        <mxCell id="5qT3sLlRHdyFEPzXBc_V-23" value="" style="fontColor=#0066CC;verticalAlign=top;verticalLabelPosition=bottom;labelPosition=center;align=center;html=1;outlineConnect=0;fillColor=#CCCCCC;strokeColor=#6881B3;gradientColor=none;gradientDirection=north;strokeWidth=2;shape=mxgraph.networks.patch_panel;" vertex="1" parent="1">
          <mxGeometry x="375" y="550" width="100" height="35" as="geometry" />
        </mxCell>
        <mxCell id="5qT3sLlRHdyFEPzXBc_V-30" style="edgeStyle=orthogonalEdgeStyle;rounded=0;orthogonalLoop=1;jettySize=auto;html=1;" edge="1" parent="1" source="5qT3sLlRHdyFEPzXBc_V-27" target="5qT3sLlRHdyFEPzXBc_V-29">
          <mxGeometry relative="1" as="geometry" />
        </mxCell>
        <mxCell id="5qT3sLlRHdyFEPzXBc_V-27" value="" style="fontColor=#0066CC;verticalAlign=top;verticalLabelPosition=bottom;labelPosition=center;align=center;html=1;outlineConnect=0;fillColor=#CCCCCC;strokeColor=#6881B3;gradientColor=none;gradientDirection=north;strokeWidth=2;shape=mxgraph.networks.patch_panel;" vertex="1" parent="1">
          <mxGeometry x="590" y="450" width="100" height="35" as="geometry" />
        </mxCell>
        <mxCell id="5qT3sLlRHdyFEPzXBc_V-29" value="" style="fontColor=#0066CC;verticalAlign=top;verticalLabelPosition=bottom;labelPosition=center;align=center;html=1;outlineConnect=0;fillColor=#CCCCCC;strokeColor=#6881B3;gradientColor=none;gradientDirection=north;strokeWidth=2;shape=mxgraph.networks.monitor;" vertex="1" parent="1">
          <mxGeometry x="710" y="275" width="80" height="65" as="geometry" />
        </mxCell>
        <mxCell id="5qT3sLlRHdyFEPzXBc_V-32" style="edgeStyle=orthogonalEdgeStyle;rounded=0;orthogonalLoop=1;jettySize=auto;html=1;entryX=0.5;entryY=0;entryDx=0;entryDy=0;entryPerimeter=0;" edge="1" parent="1" source="5qT3sLlRHdyFEPzXBc_V-31" target="5qT3sLlRHdyFEPzXBc_V-6">
          <mxGeometry relative="1" as="geometry" />
        </mxCell>
        <mxCell id="5qT3sLlRHdyFEPzXBc_V-31" value="" style="fontColor=#0066CC;verticalAlign=top;verticalLabelPosition=bottom;labelPosition=center;align=center;html=1;outlineConnect=0;fillColor=#CCCCCC;strokeColor=#6881B3;gradientColor=none;gradientDirection=north;strokeWidth=2;shape=mxgraph.networks.firewall;" vertex="1" parent="1">
          <mxGeometry x="135" y="52.5" width="90" height="85" as="geometry" />
        </mxCell>
        <mxCell id="5qT3sLlRHdyFEPzXBc_V-34" value="" style="fontColor=#0066CC;verticalAlign=top;verticalLabelPosition=bottom;labelPosition=center;align=center;html=1;outlineConnect=0;fillColor=#CCCCCC;strokeColor=#6881B3;gradientColor=none;gradientDirection=north;strokeWidth=2;shape=mxgraph.networks.mail_server;" vertex="1" parent="1">
          <mxGeometry x="360" y="175" width="105" height="105" as="geometry" />
        </mxCell>
        <mxCell id="5qT3sLlRHdyFEPzXBc_V-44" value="" style="fontColor=#0066CC;verticalAlign=top;verticalLabelPosition=bottom;labelPosition=center;align=center;html=1;outlineConnect=0;fillColor=#CCCCCC;strokeColor=#6881B3;gradientColor=none;gradientDirection=north;strokeWidth=2;shape=mxgraph.networks.wireless_modem;" vertex="1" parent="1">
          <mxGeometry x="40" y="-140" width="100" height="85" as="geometry" />
        </mxCell>
        <mxCell id="5qT3sLlRHdyFEPzXBc_V-47" style="edgeStyle=orthogonalEdgeStyle;rounded=0;orthogonalLoop=1;jettySize=auto;html=1;" edge="1" parent="1" source="5qT3sLlRHdyFEPzXBc_V-46">
          <mxGeometry relative="1" as="geometry">
            <mxPoint x="150" y="-70" as="targetPoint" />
          </mxGeometry>
        </mxCell>
        <mxCell id="5qT3sLlRHdyFEPzXBc_V-46" value="" style="fontColor=#0066CC;verticalAlign=top;verticalLabelPosition=bottom;labelPosition=center;align=center;html=1;outlineConnect=0;fillColor=#CCCCCC;strokeColor=#6881B3;gradientColor=none;gradientDirection=north;strokeWidth=2;shape=mxgraph.networks.mobile;" vertex="1" parent="1">
          <mxGeometry x="250" y="-120" width="50" height="100" as="geometry" />
        </mxCell>
      </root>
    </mxGraphModel>
  </diagram>
</mxfile>
